<svg id="图层_1" data-name="图层 1" xmlns="http://www.w3.org/2000/svg" viewBox="0 0 97.96 32"><defs><style>.cls-1{fill:#206231;}</style></defs><title>未标题-4</title><path class="cls-1" d="M33.83,1.41H8.44V4.92H18.52l.19.27L10.52,9a3,3,0,0,0-1.73,2.72v2l0,0v0l0,0v0l0,0v0l0,0v0L20,8.52v2.28l-9.53,4.47A3,3,0,0,0,8.79,18v2l0,0v0l0,0v0l0,0v0l0,0v0L20,14.77V17l-9.53,4.47a3,3,0,0,0-1.72,2.71v2l0,0v0l0,0v0l0,0v0l0,0v0L20,21v2.55H16.88v.53a3,3,0,0,0,3,3h4.54V8a3,3,0,0,0-.56-1.74l-1-1.33h8a3,3,0,0,0,3-3V1.41h-.07Z"/><path class="cls-1" d="M33.87,7.15l0,0v0l0,0v0l0,0v0l-4,2.84-.62-3H24.8l4.22,20h4.36L30.6,13.84l2.05-1.46A3,3,0,0,0,33.9,9.94V7.15l0,0Z"/><path class="cls-1" d="M33.83,28.48H7.15a1,1,0,0,1-1-1V14.71s0,0,0,0,0,0,0,0a3,3,0,0,0-3-3H0a0,0,0,0,0,0,0v3.49H2.11V28.41A3.59,3.59,0,0,0,5.7,32H30.91a3,3,0,0,0,3-3v-.53h-.07Z"/><path class="cls-1" d="M2.18,8.09H6.12V3a3,3,0,0,0-3-3h-1V8.09h.07Z"/><path class="cls-1" d="M66,19H62.09V32h11a2,2,0,0,0,2-2V28.48H66V25.31l6.82-1.57a3,3,0,0,0,2.32-2.91V19.69L66,21.8Z"/><path class="cls-1" d="M53.3,19H49.43V32h9.35a1.9,1.9,0,0,0,1.9-1.9V28.48H53.3V25.32h4.39a3,3,0,0,0,3-3V21.8H53.3Z"/><path class="cls-1" d="M70.53,8.09H66V4.92h6.17a3.52,3.52,0,0,0,3.52-3.52H62.09V0H56.47V1.41H48a5.2,5.2,0,0,0-5.22,4.5,5.11,5.11,0,0,0,5.06,5.7h4.41v3.16H45.1a2.34,2.34,0,0,0-2.34,2.34V32h1.76a1.76,1.76,0,0,0,1.76-1.76v-11a1.35,1.35,0,0,1,1.2-1H70.55a5.12,5.12,0,0,0,5.06-5.71A5.18,5.18,0,0,0,70.53,8.09Zm-8.44,0h-6V4.92h6Zm-13.9,0a1.59,1.59,0,0,1-1.58-1.73,1.64,1.64,0,0,1,1.66-1.43h4V8.09Zm7.93,6.68V11.6h6v3.16Zm14,0H66V11.6H70A1.64,1.64,0,0,1,71.71,13,1.59,1.59,0,0,1,70.13,14.77Z"/><path class="cls-1" d="M86.35,0a2.84,2.84,0,0,0-2.83,2.83V32H95.14A2.84,2.84,0,0,0,98,29.17V23.63H85.37V22.28H98V9.61H92.32v1.64q0,3-3,3h-4V12.94h4a2,2,0,0,0,1.23-.29,2,2,0,0,0,.41-1.4V9.61H85.37V8.27H98V0Zm2.4,24.43h3.56v1.34H88.75a2,2,0,0,0-1.69.64,2.82,2.82,0,0,0-.29,1.46v1.69h5.55v1.34H85.37v-3Q85.37,24.44,88.75,24.44Zm0-9.4h3.52a0,0,0,0,1,0,0A1.31,1.31,0,0,1,91,16.38H88.75a2,2,0,0,0-1.69.64h0a2.83,2.83,0,0,0-.29,1.46v1.66a0,0,0,0,0,0,0h5.47a0,0,0,0,1,0,0v1.27a0,0,0,0,1,0,0H85.4a0,0,0,0,1,0,0v-3Q85.37,15,88.75,15Zm3.56-7.59h-.6a2.11,2.11,0,0,1-1.55-.67L86.84,3.21a0,0,0,0,0-.07,0V7.51h-1.4V1.2h.49a2.11,2.11,0,0,1,1.53.66l3.43,3.62A.08.08,0,0,0,91,5.43V1.2h1.34Z"/></svg>